<svg width="40" height="41" viewBox="0 0 40 41" fill="none" xmlns="http://www.w3.org/2000/svg">
<path d="M26.36 23.5632C24.924 23.5632 23.76 25.1772 23.76 27.1612C23.76 29.1492 24.924 30.7632 26.36 30.7632C27.796 30.7632 28.96 29.1492 28.96 27.1612C28.958 25.1772 27.796 23.5632 26.36 23.5632ZM35.412 14.1972C35.71 13.4672 35.722 9.31921 34.142 5.34521C34.142 5.34521 30.52 5.74322 25.04 9.50522C23.89 9.18522 21.944 9.02921 20.002 9.02921C18.056 9.02921 16.112 9.18522 14.962 9.50522C9.47998 5.74322 5.85798 5.34521 5.85798 5.34521C4.27998 9.31921 4.29598 13.4672 4.58998 14.1972C2.73398 16.2132 1.59998 18.6352 1.59998 21.9392C1.59998 36.3112 13.526 36.5412 16.534 36.5412L20.002 36.5452L23.466 36.5412C26.478 36.5412 38.4 36.3112 38.4 21.9392C38.4 18.6352 37.268 16.2132 35.412 14.1972ZM20.056 34.7752H19.944C12.402 34.7752 6.52598 33.8772 6.52598 26.5452C6.52598 24.7872 7.14598 23.1592 8.61998 21.8072C11.074 19.5532 15.23 20.7452 19.944 20.7452H20.056C24.77 20.7452 28.928 19.5532 31.384 21.8072C32.854 23.1592 33.474 24.7872 33.474 26.5452C33.474 33.8772 27.6 34.7752 20.056 34.7752ZM13.642 23.5632C12.206 23.5632 11.042 25.1772 11.042 27.1612C11.042 29.1492 12.206 30.7632 13.642 30.7632C15.078 30.7632 16.244 29.1492 16.244 27.1612C16.244 25.1772 15.08 23.5632 13.642 23.5632Z" fill="#FFE9BF"/>
</svg>
