<svg width="40" height="41" viewBox="0 0 40 41" fill="none" xmlns="http://www.w3.org/2000/svg">
<g clip-path="url(#clip0_50_28)">
<path d="M26 20.9451C26 22.5364 25.3678 24.0625 24.2426 25.1878C23.1174 26.313 21.5913 26.9451 20 26.9451C18.4087 26.9451 16.8826 26.313 15.7573 25.1878C14.6321 24.0625 14 22.5364 14 20.9451C14.0013 20.6025 14.034 20.2691 14.098 19.9451H12V27.9391C12 28.4951 12.45 28.9451 13.006 28.9451H26.996C27.2624 28.9446 27.5178 28.8384 27.706 28.6498C27.8943 28.4612 28 28.2056 28 27.9391V19.9451H25.902C25.966 20.2691 25.9987 20.6025 26 20.9451ZM20 24.9451C20.5254 24.945 21.0457 24.8414 21.531 24.6402C22.0164 24.439 22.4574 24.1442 22.8288 23.7725C23.2003 23.4009 23.4949 22.9598 23.6958 22.4743C23.8968 21.9888 24.0001 21.4685 24 20.9431C23.9999 20.4177 23.8962 19.8974 23.695 19.4121C23.4939 18.9267 23.199 18.4857 22.8274 18.1143C22.4558 17.7428 22.0147 17.4482 21.5292 17.2473C21.0437 17.0463 20.5234 16.943 19.998 16.9431C18.9369 16.9434 17.9193 17.3652 17.1691 18.1157C16.419 18.8662 15.9977 19.884 15.998 20.9451C15.9983 22.0062 16.42 23.0238 17.1706 23.774C17.9211 24.5241 18.9389 24.9454 20 24.9451ZM24.8 16.7451H27.198C27.2769 16.7454 27.3552 16.7301 27.4282 16.7C27.5012 16.67 27.5676 16.6258 27.6235 16.5701C27.6795 16.5143 27.7238 16.4481 27.7541 16.3752C27.7844 16.3023 27.8 16.2241 27.8 16.1451V13.7471C27.8003 13.668 27.7849 13.5896 27.7547 13.5164C27.7245 13.4433 27.6802 13.3768 27.6243 13.3208C27.5683 13.2649 27.5018 13.2206 27.4287 13.1904C27.3555 13.1602 27.2771 13.1449 27.198 13.1451H24.8C24.7209 13.1449 24.6425 13.1602 24.5693 13.1904C24.4961 13.2206 24.4297 13.2649 24.3737 13.3208C24.3178 13.3768 24.2734 13.4433 24.2433 13.5164C24.2131 13.5896 24.1977 13.668 24.198 13.7471V16.1451C24.2 16.4751 24.47 16.7451 24.8 16.7451ZM20 1.74512C14.9078 1.74512 10.0242 3.76797 6.42354 7.36867C2.82284 10.9694 0.799988 15.853 0.799988 20.9451C0.799988 26.0373 2.82284 30.9209 6.42354 34.5216C10.0242 38.1223 14.9078 40.1451 20 40.1451C22.5214 40.1451 25.0181 39.6485 27.3475 38.6836C29.677 37.7187 31.7936 36.3045 33.5764 34.5216C35.3593 32.7387 36.7736 30.6221 37.7385 28.2926C38.7034 25.9632 39.2 23.4665 39.2 20.9451C39.2 18.4237 38.7034 15.927 37.7385 13.5976C36.7736 11.2681 35.3593 9.15155 33.5764 7.36867C31.7936 5.58578 29.677 4.17152 27.3475 3.20663C25.0181 2.24174 22.5214 1.74512 20 1.74512ZM30 28.7231C30 29.9451 29 30.9451 27.778 30.9451H12.222C11 30.9451 9.99999 29.9451 9.99999 28.7231V13.1671C9.99999 11.9451 11 10.9451 12.222 10.9451H27.778C29 10.9451 30 11.9451 30 13.1671V28.7231Z" fill="#FFE9BF"/>
</g>
<defs>
<clipPath id="clip0_50_28">
<rect width="40" height="40" fill="white" transform="translate(0 0.945312)"/>
</clipPath>
</defs>
</svg>
