<svg width="52" height="32" viewBox="0 0 52 32" fill="none" xmlns="http://www.w3.org/2000/svg">
<path d="M7.78841 0.750556C7.35318 0.907062 7.00119 1.14064 6.77648 1.42205C6.55178 1.70346 6.46435 2.0202 6.52514 2.33264L10.3787 28.2805C10.625 29.5403 12.9996 30.1275 14.549 29.3115L21.7986 25.4939L25.4451 29.4571C27.5422 31.7358 31.7538 31.9755 35.385 30.6597C39.0177 29.3438 40.7925 26.9358 38.6954 24.6571L35.0617 20.708L43.8153 18.7096C45.7161 18.2754 46.093 16.692 44.4773 15.9282L10.5898 0.859996C10.1912 0.671799 9.71324 0.56112 9.21528 0.541667C8.71733 0.522214 8.22123 0.594843 7.78841 0.750556ZM12.3162 5.68112L37.6555 16.7106L27.6019 19.0059L27.6488 19.0517L34.2788 26.2571C35.0071 27.0485 34.0973 27.4315 32.8355 27.8885C31.5738 28.3454 30.5905 28.6485 29.8622 27.8571L23.2322 20.6517L23.1797 20.5883L14.8698 24.965L12.3162 5.68112Z" fill="#F8F8F8"/>
</svg>
