<svg width="34" height="36" viewBox="0 0 34 36" fill="none" xmlns="http://www.w3.org/2000/svg">
<path d="M1.79834 9.67344C1.79834 12.6445 2.74294 14.7882 4.60375 16.047C6.1295 17.0811 7.89756 17.2362 8.81755 17.2362C9.04345 17.2336 9.21949 17.2269 9.34569 17.2163C9.34569 17.2163 9.05417 19.2129 10.4626 21.1857H10.3982C7.95813 21.1857 0 21.7206 0 28.5973C0 35.5893 7.30884 35.9453 8.7759 35.9453C8.89138 35.9453 8.95952 35.9413 8.95952 35.9413L9.25862 35.9453C10.1994 35.9453 12.6319 35.822 14.8903 34.6666C17.8206 33.1751 19.3066 30.572 19.3066 26.9408C19.3066 23.4328 17.0426 21.3447 15.39 19.8175C14.381 18.8848 13.5084 18.0814 13.5084 17.2999C13.5084 16.5044 14.1463 15.9058 14.9508 15.1482C16.2551 13.9251 17.4856 12.1811 17.4856 8.88395C17.4856 5.98651 17.1278 4.03963 14.9224 2.80469C15.1515 2.68139 15.9655 2.5919 16.3668 2.53224C17.5613 2.36122 19.3085 2.16634 19.3085 1.14219V0.945312H10.6026C10.5156 0.94929 1.79834 1.28736 1.79834 9.67344ZM15.8519 27.597C16.0185 30.393 13.7412 32.4553 10.3206 32.7158C6.84695 32.9842 3.98853 31.3416 3.82195 28.5476C3.74055 27.2033 4.30277 25.8908 5.40259 24.8428C6.51757 23.7828 8.049 23.1266 9.71483 22.9973C9.9117 22.984 10.1073 22.9761 10.3017 22.9734C13.5178 22.9754 15.6948 24.9601 15.8519 27.597ZM13.5784 7.75838C14.4322 10.9163 13.143 14.2135 11.0872 14.824C10.8507 14.8937 10.606 14.9285 10.3603 14.9274C8.4787 14.9274 6.61411 12.9268 5.92127 10.1686C5.5351 8.62543 5.56729 7.26918 6.01024 5.96861C6.44374 4.68594 7.22744 3.82486 8.21179 3.53253C8.44905 3.46226 8.69198 3.42713 8.94059 3.42713C11.2122 3.42713 12.6736 4.41747 13.5784 7.75838ZM28.321 14.468V8.50213H24.535V14.468H18.8561V18.4453H24.535V24.4112H28.321V18.4453H34V14.468H28.321Z" fill="#FFE9BF"/>
</svg>
