<svg width="122" height="93" viewBox="0 0 122 93" fill="none" xmlns="http://www.w3.org/2000/svg">
<path d="M79.9941 16.8744L79.9948 16.8744C80.9073 16.9336 81.6534 17.2114 82.2924 17.7071C82.2926 17.7072 82.2927 17.7073 82.2928 17.7074L81.9863 18.1024C84.2004 19.8168 80.9744 26.4912 79.4219 29.3374L79.9941 16.8744ZM79.9941 16.8744C78.6647 16.7902 77.1064 17.1228 75.5347 17.6422C73.9544 18.1645 72.3185 18.8903 70.8204 19.6278L70.819 19.6285C69.5897 20.2383 67.4973 21.0755 65.3642 21.4797C63.1989 21.89 61.1502 21.824 59.8616 20.8262L59.8605 20.8254C59.8029 20.781 59.7441 20.7398 59.7075 20.7133C59.6666 20.6837 59.6391 20.6626 59.6145 20.6408L59.3053 20.3671L58.9781 20.619L53.032 25.1962L52.5172 25.5924L53.032 25.9886L88.168 53.0324L88.4728 53.267L88.7778 53.0325L96.4839 47.1071L96.9991 46.711L96.4841 46.3145L96.3484 46.2101L79.9941 16.8744ZM47.1233 29.7454L47.4277 29.9798L82.5638 57.0269L83.0785 57.4231L82.5638 57.8193L81.3478 58.7553L81.3443 58.758L73.9184 64.5808L73.663 64.7811L73.3761 64.6293C73.1101 64.4886 72.8576 64.3522 72.6078 64.2173C71.2803 63.5003 70.0266 62.8232 67.212 61.7413L47.1233 29.7454ZM47.1233 29.7454L46.8184 29.9792L45.6016 30.9126L45.5989 30.9147L37.8998 36.7381L37.489 37.0488L37.8118 37.4502C38.0164 37.7048 38.2165 37.9458 38.4178 38.1884C39.2578 39.2003 40.1192 40.238 41.4237 42.3895L41.8512 42.1302L41.4237 42.3895C42.6398 44.395 43.8165 46.4835 44.3411 48.5984C44.604 49.6674 44.7634 50.8305 44.5503 51.96C44.3434 53.056 43.7809 54.1493 42.5513 55.1111L42.3487 55.1879L42.2795 55.2141L42.2209 55.2592L42.1086 55.3456M47.1233 29.7454L42.1086 55.3456M42.1086 55.3456L42.0577 55.3765L41.8402 55.5088C41.6494 55.6249 41.369 55.7956 41.0106 56.0141C40.2937 56.4512 39.2646 57.0798 38.0152 57.8457C35.5166 59.3774 32.137 61.4586 28.6133 63.6566L28.6132 63.6567C21.5794 68.0474 13.7003 73.1566 11.6834 74.7118C10.8242 75.3594 10.1321 76.1395 9.65582 77.0112C9.17856 77.8846 8.92918 78.8298 8.92918 79.7898C8.92918 80.7497 9.17856 81.6949 9.65582 82.5683C10.1322 83.4401 10.8244 84.2203 11.6838 84.868C15.2756 87.6346 20.8609 87.634 24.452 84.8664C24.4521 84.8663 24.4522 84.8662 24.4522 84.8662L24.147 84.4702C26.1406 82.9356 32.7656 76.8903 38.4739 71.4676L42.1086 55.3456ZM120.922 36.5144L118.435 38.5146L94.2535 57.026L94.2535 57.0259L94.2441 57.0335L91.2773 59.4203L91.2689 59.4269L86.9555 62.7472L86.9528 62.7492L76.9531 70.3403L76.9501 70.3426L74.6471 72.1184L71.9599 70.6151L71.9546 70.6122C69.3086 69.1736 66.5361 67.8793 63.6577 66.7385L63.6543 66.7372C61.4879 65.8966 59.216 65.2567 57.593 65.0432C56.7876 64.9356 56.2994 64.9341 55.9978 64.9684C55.8459 64.9857 55.7297 65.0133 55.6391 65.0481C55.5938 65.0654 55.5503 65.0863 55.5101 65.1117C55.4941 65.1218 55.4641 65.1418 55.4321 65.1714C55.4287 65.1745 55.421 65.1816 55.4111 65.1919C51.9165 68.5581 48.4088 71.9163 44.8883 75.2665C39.253 80.6289 33.1669 86.2332 30.0563 88.6539H29.9247L29.7906 88.7558C23.2432 93.731 12.5819 93.7644 6.07347 88.7579C2.94398 86.333 1.2246 83.0856 1.2246 79.7382C1.2246 76.3908 2.94385 73.1435 6.07314 70.7187C8.87249 68.5638 15.428 64.4808 21.9843 60.3973C22.5694 60.0329 23.1545 59.6685 23.7369 59.3054L23.7372 59.3052C30.5427 55.055 36.2311 51.5812 36.7035 51.2969L36.8826 51.1891L36.9317 50.986C36.9697 50.829 36.9661 50.6296 36.9453 50.4264C36.9229 50.2082 36.8748 49.9352 36.7928 49.6071C36.4695 48.2759 35.4889 46.3974 34.4424 44.6796L34.4422 44.6795C33.3835 42.9433 32.1896 41.2905 31.2627 40.0741C30.7988 39.4653 30.4006 38.9643 30.118 38.6151C29.9767 38.4404 29.8643 38.3037 29.7869 38.2103C29.7482 38.1636 29.7183 38.1278 29.6979 38.1034L29.6746 38.0757L29.6697 38.0699L29.6685 38.0684L29.6669 38.0665L29.6664 38.066L29.6663 38.0658L28.1059 36.179L30.1296 34.624L30.1326 34.6216L39.994 26.924L39.9967 26.9219L44.3141 23.5985L47.419 21.3148L47.4191 21.3149L47.4288 21.3073L71.4767 2.68924L74.2845 0.621007L77.0931 2.6898L77.1016 2.69616L118.431 34.5105L118.439 34.5172L120.922 36.5144ZM55.7957 65.5244C55.8435 65.5018 55.9703 65.4606 56.2616 65.4507C56.2437 65.3851 56.1931 65.2727 56.1528 65.217C56.1012 65.1643 55.988 65.0891 55.9301 65.0655C55.8051 65.0235 55.7008 65.0434 55.6713 65.0494C55.6288 65.058 55.5967 65.0704 55.5806 65.077C55.5473 65.0907 55.523 65.105 55.5132 65.1109C55.4906 65.1245 55.474 65.1369 55.4666 65.1426L55.7957 65.5244ZM49.6131 61.4432L49.724 61.3579L49.7932 61.3046L49.8403 61.231L49.9265 61.0961C52.4435 59.2059 56.019 59.0948 58.9498 59.48C61.8812 59.8654 64.6455 60.7585 67.212 61.7413L49.6131 61.4432ZM16.1077 76.7786C16.897 76.171 17.9895 75.8158 19.148 75.8158C20.3064 75.8158 21.3989 76.171 22.1882 76.7786C22.9746 77.384 23.3789 78.1728 23.3789 78.9576C23.3789 79.7423 22.9746 80.5311 22.1882 81.1365C21.3989 81.7441 20.3064 82.0993 19.148 82.0993C17.9895 82.0993 16.897 81.7441 16.1077 81.1365C15.3213 80.5311 14.917 79.7423 14.917 78.9576C14.917 78.1728 15.3213 77.384 16.1077 76.7786Z" fill="black" stroke="white"/>
</svg>
