<svg width="92" height="92" viewBox="0 0 92 92" fill="none" xmlns="http://www.w3.org/2000/svg">
<path d="M10.3571 62.3898V0.5H81.6429V62.3852V62.5436L81.7341 62.6731L89.2288 73.313L89.2309 73.3159C90.6621 75.3163 91.4871 78.0521 91.5 80.9325C91.4879 83.7745 90.675 86.4741 89.2643 88.4491C87.8552 90.4219 85.9892 91.484 84.0924 91.5H7.90762C6.01075 91.484 4.14479 90.4219 2.73565 88.4491C1.32494 86.4741 0.512083 83.7743 0.500004 80.9323C0.511077 78.0543 1.3364 75.3207 2.76862 73.3258L2.77126 73.3221L10.266 62.6777L10.3571 62.5482V62.3898ZM16.4286 8.7H15.9286V9.2V59.8V60.3H16.4286H75.5714H76.0714V59.8V9.2V8.7H75.5714H16.4286ZM27.9215 32.7681L33.2221 23.8406L36.0841 27.0304L31.8029 34.2448L31.6513 34.5002L31.803 34.7554L36.0903 41.9695L33.2225 45.16L27.9215 36.2319L27.919 36.2278L26.8706 34.5L27.919 32.7722L27.9215 32.7681ZM58.781 45.1597L55.916 41.9694L60.1971 34.7552L60.3487 34.4998L60.197 34.2446L55.9097 27.0305L58.7775 23.84L64.0785 32.7681L64.081 32.7722L65.1296 34.5004L64.0839 36.2283L64.0818 36.2319L58.781 45.1597ZM14.5787 68.5H14.3234L14.1737 68.7068L6.57711 79.1994L6.57353 79.2044C6.24694 79.6675 6.07332 80.3402 6.07144 80.9229C6.06116 81.2178 6.09466 81.5142 6.17142 81.7945C6.24892 82.0776 6.37045 82.3438 6.53424 82.5731C6.698 82.8023 6.90445 82.995 7.14749 83.1254C7.38629 83.2536 7.651 83.3162 7.922 83.3H84.078C84.349 83.3162 84.6137 83.2536 84.8525 83.1254C85.0956 82.995 85.302 82.8023 85.4658 82.5731C85.6295 82.3438 85.7511 82.0776 85.8286 81.7945C85.9054 81.514 85.9389 81.2172 85.9285 80.922C85.9248 80.305 85.7559 79.6944 85.4328 79.2137L85.4279 79.2064L85.4228 79.1993L77.8229 68.7067L77.6732 68.5H77.418H14.5787ZM50.3655 14.3L45.556 54.7H41.6345L46.444 14.3H50.3655Z" fill="black" stroke="#FFFBFB"/>
</svg>
