<svg width="34" height="35" viewBox="0 0 34 35" fill="none" xmlns="http://www.w3.org/2000/svg">
<path d="M1.79834 8.72813C1.79834 11.6991 2.74294 13.8429 4.60375 15.1017C6.1295 16.1358 7.89756 16.2909 8.81755 16.2909C9.04345 16.2883 9.21949 16.2816 9.34569 16.271C9.34569 16.271 9.05417 18.2676 10.4626 20.2403H10.3982C7.95813 20.2403 0 20.7753 0 27.652C0 34.644 7.30884 35 8.7759 35C8.89138 35 8.95952 34.996 8.95952 34.996L9.25862 35C10.1994 35 12.6319 34.8767 14.8903 33.7213C17.8206 32.2298 19.3066 29.6267 19.3066 25.9955C19.3066 22.4875 17.0426 20.3994 15.39 18.8722C14.381 17.9395 13.5084 17.1361 13.5084 16.3545C13.5084 15.5591 14.1463 14.9605 14.9508 14.2028C16.2551 12.9798 17.4856 11.2358 17.4856 7.93864C17.4856 5.04119 17.1278 3.09432 14.9224 1.85938C15.1515 1.73608 15.9655 1.64659 16.3668 1.58693C17.5613 1.41591 19.3085 1.22102 19.3085 0.196875V0H10.6026C10.5156 0.00397727 1.79834 0.342045 1.79834 8.72813ZM15.8519 26.6517C16.0185 29.4477 13.7412 31.5099 10.3206 31.7705C6.84695 32.0389 3.98853 30.3963 3.82195 27.6023C3.74055 26.258 4.30277 24.9455 5.40259 23.8974C6.51757 22.8375 8.04899 22.1813 9.71483 22.052C9.9117 22.0387 10.1073 22.0308 10.3017 22.0281C13.5178 22.0301 15.6948 24.0148 15.8519 26.6517ZM13.5784 6.81307C14.4322 9.97102 13.143 13.2682 11.0872 13.8787C10.8507 13.9484 10.606 13.9832 10.3603 13.9821C8.4787 13.9821 6.61411 11.9815 5.92127 9.2233C5.5351 7.68011 5.56728 6.32386 6.01024 5.0233C6.44374 3.74063 7.22744 2.87955 8.21179 2.58722C8.44905 2.51695 8.69198 2.48182 8.94059 2.48182C11.2122 2.48182 12.6736 3.47216 13.5784 6.81307ZM28.321 13.5227V7.55682H24.535V13.5227H18.8561V17.5H24.535V23.4659H28.321V17.5H34V13.5227H28.321Z" fill="#B9140E"/>
</svg>
