<svg width="85" height="85" viewBox="0 0 85 85" fill="none" xmlns="http://www.w3.org/2000/svg">
<g opacity="0.66">
<rect x="0.5" y="0.5" width="84" height="84" stroke="black"/>
<path d="M21.25 10.625V21.25H10.625V10.625H21.25ZM5.3125 5.3125V26.5625H26.5625V5.3125H5.3125ZM47.8125 18.5938V29.2188H37.1875V18.5938H47.8125ZM31.875 13.2812V34.5312H53.125V13.2812H31.875ZM21.25 42.5V53.125H10.625V42.5H21.25ZM5.3125 37.1875V58.4375H26.5625V37.1875H5.3125Z" fill="#F8F8F8"/>
<path d="M58.4375 26.5625V42.5H42.5V58.4375H26.5625V79.6875H79.6875V26.5625H58.4375ZM47.8125 47.8125H58.4375V58.4375H47.8125V47.8125ZM42.5 74.375H31.875V63.75H42.5V74.375ZM58.4375 74.375H47.8125V63.75H58.4375V74.375ZM74.375 74.375H63.75V63.75H74.375V74.375ZM74.375 58.4375H63.75V47.8125H74.375V58.4375ZM63.75 42.5V31.875H74.375V42.5H63.75Z" fill="#F8F8F8"/>
</g>
</svg>
