<svg width="40" height="41" viewBox="0 0 40 41" fill="none" xmlns="http://www.w3.org/2000/svg">
<g clip-path="url(#clip0_50_20)">
<g clip-path="url(#clip1_50_20)">
<path d="M20 1.74512C9.39599 1.74512 0.799988 10.3411 0.799988 20.9451C0.799988 31.5491 9.39599 40.1451 20 40.1451C30.604 40.1451 39.2 31.5491 39.2 20.9451C39.2 10.3411 30.604 1.74512 20 1.74512ZM15.3 28.9031H11.412V16.3911H15.3V28.9031ZM13.332 14.8551C12.104 14.8551 11.31 13.9851 11.31 12.9091C11.31 11.8111 12.128 10.9671 13.382 10.9671C14.636 10.9671 15.404 11.8111 15.428 12.9091C15.428 13.9851 14.636 14.8551 13.332 14.8551ZM29.5 28.9031H25.612V21.9691C25.612 20.3551 25.048 19.2591 23.642 19.2591C22.568 19.2591 21.93 20.0011 21.648 20.7151C21.544 20.9691 21.518 21.3291 21.518 21.6871V28.9011H17.628V20.3811C17.628 18.8191 17.578 17.5131 17.526 16.3891H20.904L21.082 18.1271H21.16C21.672 17.3111 22.926 16.1071 25.024 16.1071C27.582 16.1071 29.5 17.8211 29.5 21.5051V28.9031Z" fill="#FFE9BF"/>
</g>
</g>
<defs>
<clipPath id="clip0_50_20">
<rect width="40" height="40" fill="white" transform="translate(0 0.945312)"/>
</clipPath>
<clipPath id="clip1_50_20">
<rect width="40" height="40" fill="white" transform="translate(0 0.945312)"/>
</clipPath>
</defs>
</svg>
