<svg width="40" height="40" viewBox="0 0 40 40" fill="none" xmlns="http://www.w3.org/2000/svg">
<g clip-path="url(#clip0_74_166)">
<path d="M26 20C26 21.5913 25.3679 23.1175 24.2427 24.2427C23.1175 25.3679 21.5913 26 20 26C18.4088 26 16.8826 25.3679 15.7574 24.2427C14.6322 23.1175 14 21.5913 14 20C14.0014 19.6574 14.034 19.324 14.098 19H12V26.994C12 27.55 12.45 28 13.006 28H26.996C27.2625 27.9995 27.5179 27.8933 27.7061 27.7047C27.8943 27.5161 28 27.2605 28 26.994V19H25.9021C25.966 19.324 25.9987 19.6574 26 20ZM20 24C20.5255 23.9999 21.0457 23.8963 21.5311 23.6951C22.0165 23.4939 22.4575 23.1991 22.8289 22.8275C23.2003 22.4559 23.4949 22.0147 23.6959 21.5292C23.8968 21.0438 24.0002 20.5235 24 19.998C23.9999 19.4726 23.8963 18.9524 23.6951 18.467C23.4939 17.9816 23.1991 17.5406 22.8275 17.1692C22.4559 16.7978 22.0147 16.5032 21.5292 16.3022C21.0438 16.1013 20.5235 15.9979 19.998 15.998C18.9369 15.9983 17.9194 16.4201 17.1692 17.1706C16.4191 17.9211 15.9978 18.9389 15.998 20C15.9983 21.0612 16.4201 22.0787 17.1706 22.8289C17.9211 23.579 18.9389 24.0003 20 24ZM24.8 15.8H27.198C27.277 15.8003 27.3552 15.785 27.4283 15.755C27.5013 15.7249 27.5677 15.6808 27.6236 15.625C27.6795 15.5693 27.7239 15.503 27.7542 15.4301C27.7845 15.3572 27.8 15.279 27.8 15.2V12.802C27.8003 12.7229 27.7849 12.6445 27.7548 12.5714C27.7246 12.4982 27.6803 12.4317 27.6243 12.3758C27.5684 12.3198 27.5019 12.2755 27.4287 12.2453C27.3556 12.2152 27.2772 12.1998 27.198 12.2H24.8C24.7209 12.1998 24.6425 12.2152 24.5694 12.2453C24.4962 12.2755 24.4297 12.3198 24.3738 12.3758C24.3178 12.4317 24.2735 12.4982 24.2433 12.5714C24.2132 12.6445 24.1978 12.7229 24.198 12.802V15.2C24.2001 15.53 24.47 15.8 24.8 15.8ZM20 0.800049C14.9079 0.800049 10.0243 2.8229 6.4236 6.4236C2.8229 10.0243 0.800049 14.9079 0.800049 20C0.800049 25.0922 2.8229 29.9758 6.4236 33.5765C10.0243 37.1772 14.9079 39.2001 20 39.2001C22.5214 39.2001 25.0181 38.7034 27.3476 37.7385C29.677 36.7736 31.7936 35.3594 33.5765 33.5765C35.3594 31.7936 36.7736 29.677 37.7385 27.3476C38.7034 25.0181 39.2001 22.5214 39.2001 20C39.2001 17.4787 38.7034 14.982 37.7385 12.6525C36.7736 10.3231 35.3594 8.20648 33.5765 6.4236C31.7936 4.64071 29.677 3.22645 27.3476 2.26156C25.0181 1.29667 22.5214 0.800049 20 0.800049ZM30 27.778C30 29 29 30 27.778 30H12.222C11 30 10 29 10 27.778V12.222C10 11 11 10 12.222 10H27.778C29 10 30 11 30 12.222V27.778Z" fill="#B9140E"/>
</g>
<defs>
<clipPath id="clip0_74_166">
<rect width="40" height="40" fill="white"/>
</clipPath>
</defs>
</svg>
