<svg width="40" height="41" viewBox="0 0 40 41" fill="none" xmlns="http://www.w3.org/2000/svg">
<g clip-path="url(#clip0_50_18)">
<path d="M20 1.74512C9.39599 1.74512 0.799988 10.3411 0.799988 20.9451C0.799988 31.5491 9.39599 40.1451 20 40.1451C30.604 40.1451 39.2 31.5491 39.2 20.9451C39.2 10.3411 30.604 1.74512 20 1.74512ZM24.548 15.0131H21.662C21.32 15.0131 20.94 15.4631 20.94 16.0611V18.1451H24.55L24.004 21.1171H20.94V30.0391H17.534V21.1171H14.444V18.1451H17.534V16.3971C17.534 13.8891 19.274 11.8511 21.662 11.8511H24.548V15.0131Z" fill="#FFE9BF"/>
</g>
<defs>
<clipPath id="clip0_50_18">
<rect width="40" height="40" fill="white" transform="translate(0 0.945312)"/>
</clipPath>
</defs>
</svg>
