<svg width="40" height="40" viewBox="0 0 40 40" fill="none" xmlns="http://www.w3.org/2000/svg">
<path d="M26.3601 22.618C24.9241 22.618 23.7601 24.232 23.7601 26.216C23.7601 28.204 24.9241 29.818 26.3601 29.818C27.7961 29.818 28.9601 28.204 28.9601 26.216C28.9581 24.232 27.7961 22.618 26.3601 22.618ZM35.4121 13.252C35.7101 12.522 35.7221 8.37402 34.1421 4.40002C34.1421 4.40002 30.5201 4.79802 25.0401 8.56002C23.8901 8.24002 21.9441 8.08402 20.0021 8.08402C18.0561 8.08402 16.1121 8.24002 14.9621 8.56002C9.4801 4.79802 5.8581 4.40002 5.8581 4.40002C4.2801 8.37402 4.2961 12.522 4.5901 13.252C2.7341 15.268 1.6001 17.69 1.6001 20.994C1.6001 35.366 13.5261 35.596 16.5341 35.596L20.0021 35.6L23.4661 35.596C26.4781 35.596 38.4001 35.366 38.4001 20.994C38.4001 17.69 37.2681 15.268 35.4121 13.252ZM20.0561 33.83H19.9441C12.4021 33.83 6.5261 32.932 6.5261 25.6C6.5261 23.842 7.1461 22.214 8.6201 20.862C11.0741 18.608 15.2301 19.8 19.9441 19.8H20.0561C24.7701 19.8 28.9281 18.608 31.3841 20.862C32.8541 22.214 33.4741 23.842 33.4741 25.6C33.4741 32.932 27.6001 33.83 20.0561 33.83ZM13.6421 22.618C12.2061 22.618 11.0421 24.232 11.0421 26.216C11.0421 28.204 12.2061 29.818 13.6421 29.818C15.0781 29.818 16.2441 28.204 16.2441 26.216C16.2441 24.232 15.0801 22.618 13.6421 22.618Z" fill="#B9140E"/>
</svg>
