<svg width="98" height="85" viewBox="0 0 98 85" fill="none" xmlns="http://www.w3.org/2000/svg">
<path d="M59.8959 0C38.8967 0 21.7917 14.8353 21.7917 33.0482C21.7917 40.9633 24.9887 48.2074 30.3652 53.9115L0 80.2411L5.47937 85L35.8407 58.6639C42.6222 63.4866 51.1262 66.1142 59.8959 66.0964C80.8951 66.0964 98 51.2611 98 33.0482C98 14.8353 80.8951 0 59.8959 0ZM59.8959 6.60964C76.776 6.60964 90.3792 18.4079 90.3792 33.0482C90.3792 47.6886 76.776 59.4868 59.8959 59.4868C43.0157 59.4868 29.4126 47.6886 29.4126 33.0482C29.4126 18.4079 43.0157 6.60964 59.8959 6.60964ZM56.0855 16.5241V20.0371C51.7987 20.6584 48.4646 23.8112 48.4646 27.6845C48.458 28.9046 48.8449 30.102 49.5815 31.1415C50.3181 32.181 51.3751 33.0211 52.6332 33.5671L63.7063 38.4152C63.7168 38.5804 63.687 38.7456 63.6189 38.9C63.5507 39.0545 63.4459 39.1948 63.311 39.3117C63.1762 39.4287 63.0144 39.5196 62.8363 39.5787C62.6582 39.6378 62.4678 39.6636 62.2774 39.6545H57.5144C57.324 39.6636 57.1335 39.6378 56.9554 39.5787C56.7773 39.5196 56.6156 39.4287 56.4807 39.3117C56.3459 39.1948 56.241 39.0545 56.1729 38.9C56.1048 38.7456 56.075 38.5804 56.0855 38.4152V36.353H48.4646V38.4185C48.4646 42.2918 51.7987 45.4413 56.0855 46.0626V49.5723H63.7063V46.0593C67.993 45.438 71.3271 42.2852 71.3271 38.4119C71.3271 35.9201 69.7344 33.653 67.1585 32.5294L56.0855 27.6812C56.0855 26.9442 56.6646 26.4419 57.5144 26.4419H62.2774C63.1271 26.4419 63.7063 26.9442 63.7063 27.6812V29.7434H71.3271V27.6779C71.3271 23.8046 67.993 20.6584 63.7063 20.0338V16.5241H56.0855Z" fill="#FFFBFB" fill-opacity="0.56"/>
</svg>
